<?xml version="1.0" standalone="no"?>
<!DOCTYPE svg PUBLIC "-//W3C//DTD SVG 20010904//EN"
 "http://www.w3.org/TR/2001/REC-SVG-20010904/DTD/svg10.dtd">
<svg version="1.0" xmlns="http://www.w3.org/2000/svg"
 width="127.000000pt" height="111.000000pt" viewBox="0 0 127.000000 111.000000"
 preserveAspectRatio="xMidYMid meet">
<metadata>
Created by potrace 1.10, written by Peter Selinger 2001-2011
</metadata>
<g transform="translate(0.000000,111.000000) scale(0.100000,-0.100000)"
fill="#000000" stroke="none">
<path d="M507 852 c-11 -12 -17 -36 -17 -70 l0 -52 -40 0 c-72 0 -152 -55
-191 -132 -13 -26 -19 -58 -19 -105 0 -58 5 -75 30 -115 16 -26 49 -60 72 -75
37 -25 51 -28 122 -28 74 0 85 3 126 30 48 33 99 111 100 155 1 19 5 15 19
-22 38 -96 91 -143 179 -157 66 -10 72 -1 72 103 0 81 -1 87 -25 102 l-26 17
23 11 c21 10 23 20 26 95 3 87 -5 111 -39 111 -17 0 -19 8 -19 63 0 36 -5 68
-12 75 -18 18 -157 16 -178 -3 -15 -14 -18 -14 -30 0 -19 23 -151 21 -173 -3z
m161 -209 c-3 -182 -5 -201 -26 -240 -49 -93 -177 -131 -272 -81 -60 33 -101
93 -108 157 -4 41 1 61 23 106 35 71 85 107 161 113 l54 4 0 -83 c0 -65 -3
-80 -12 -71 -7 7 -18 12 -25 12 -20 0 -53 -38 -53 -60 0 -23 33 -60 55 -60 8
0 24 9 35 20 19 19 20 33 20 200 l0 180 76 0 76 0 -4 -197z m204 122 l-4 -75
36 0 36 0 0 -75 0 -75 -35 0 c-33 0 -35 -1 -29 -27 7 -30 29 -53 51 -53 10 0
13 -21 13 -79 l0 -78 -47 8 c-65 13 -116 49 -142 102 -19 39 -21 63 -24 235
l-2 192 75 0 75 0 -3 -75z m-382 -254 c0 -20 -13 -41 -25 -41 -18 0 -28 17
-21 35 6 16 46 21 46 6z"/>
</g>
</svg>
